<svg viewBox="0 0 600 600" xmlns="http://www.w3.org/2000/svg" role="img" aria-hidden="true"><g fill="#e9c465"><circle cx="270.8" cy="80.8" r="1.03"/><circle cx="280.3" cy="80.8" r="0.94"/><circle cx="275.5" cy="90.3" r="1.40"/><circle cx="285.0" cy="90.3" r="1.35"/><circle cx="232.8" cy="99.8" r="1.02"/><circle cx="308.8" cy="99.8" r="0.98"/><circle cx="228.0" cy="109.3" r="1.01"/><circle cx="256.5" cy="109.3" r="1.13"/><circle cx="266.0" cy="109.3" r="1.02"/><circle cx="275.5" cy="109.3" r="0.99"/><circle cx="285.0" cy="109.3" r="0.93"/><circle cx="242.3" cy="118.8" r="1.32"/><circle cx="251.8" cy="118.8" r="2.30"/><circle cx="261.3" cy="118.8" r="2.58"/><circle cx="270.8" cy="118.8" r="2.34"/><circle cx="280.3" cy="118.8" r="2.04"/><circle cx="289.8" cy="118.8" r="1.29"/><circle cx="299.3" cy="118.8" r="1.27"/><circle cx="308.8" cy="118.8" r="1.54"/><circle cx="318.3" cy="118.8" r="0.94"/><circle cx="237.5" cy="128.3" r="1.52"/><circle cx="247.0" cy="128.3" r="2.48"/><circle cx="285.0" cy="128.3" r="2.32"/><circle cx="294.5" cy="128.3" r="1.67"/><circle cx="304.0" cy="128.3" r="1.56"/><circle cx="313.5" cy="128.3" r="0.87"/><circle cx="332.5" cy="128.3" r="1.01"/><circle cx="223.3" cy="137.8" r="1.07"/><circle cx="232.8" cy="137.8" r="1.76"/><circle cx="242.3" cy="137.8" r="2.34"/><circle cx="251.8" cy="137.8" r="3.18"/><circle cx="280.3" cy="137.8" r="4.47"/><circle cx="289.8" cy="137.8" r="3.06"/><circle cx="299.3" cy="137.8" r="2.00"/><circle cx="327.8" cy="137.8" r="1.48"/><circle cx="337.3" cy="137.8" r="1.17"/><circle cx="218.5" cy="147.3" r="1.42"/><circle cx="228.0" cy="147.3" r="2.09"/><circle cx="237.5" cy="147.3" r="2.74"/><circle cx="247.0" cy="147.3" r="4.64"/><circle cx="285.0" cy="147.3" r="4.52"/><circle cx="294.5" cy="147.3" r="2.25"/><circle cx="304.0" cy="147.3" r="3.04"/><circle cx="313.5" cy="147.3" r="0.93"/><circle cx="323.0" cy="147.3" r="2.02"/><circle cx="332.5" cy="147.3" r="2.29"/><circle cx="342.0" cy="147.3" r="1.71"/><circle cx="351.5" cy="147.3" r="0.91"/><circle cx="204.3" cy="156.8" r="0.92"/><circle cx="213.8" cy="156.8" r="1.97"/><circle cx="223.3" cy="156.8" r="2.87"/><circle cx="242.3" cy="156.8" r="3.01"/><circle cx="251.8" cy="156.8" r="5.38"/><circle cx="280.3" cy="156.8" r="3.84"/><circle cx="289.8" cy="156.8" r="2.62"/><circle cx="299.3" cy="156.8" r="1.59"/><circle cx="318.3" cy="156.8" r="1.02"/><circle cx="327.8" cy="156.8" r="1.70"/><circle cx="337.3" cy="156.8" r="1.53"/><circle cx="356.3" cy="156.8" r="0.99"/><circle cx="180.5" cy="166.3" r="1.02"/><circle cx="199.5" cy="166.3" r="0.88"/><circle cx="209.0" cy="166.3" r="2.66"/><circle cx="218.5" cy="166.3" r="3.34"/><circle cx="237.5" cy="166.3" r="2.14"/><circle cx="275.5" cy="166.3" r="5.23"/><circle cx="285.0" cy="166.3" r="2.10"/><circle cx="294.5" cy="166.3" r="2.64"/><circle cx="304.0" cy="166.3" r="1.89"/><circle cx="313.5" cy="166.3" r="2.62"/><circle cx="323.0" cy="166.3" r="0.89"/><circle cx="332.5" cy="166.3" r="1.27"/><circle cx="342.0" cy="166.3" r="0.94"/><circle cx="351.5" cy="166.3" r="1.01"/><circle cx="194.8" cy="175.8" r="1.00"/><circle cx="204.3" cy="175.8" r="1.63"/><circle cx="213.8" cy="175.8" r="1.97"/><circle cx="232.8" cy="175.8" r="3.58"/><circle cx="251.8" cy="175.8" r="5.48"/><circle cx="280.3" cy="175.8" r="5.00"/><circle cx="289.8" cy="175.8" r="4.02"/><circle cx="299.3" cy="175.8" r="1.93"/><circle cx="318.3" cy="175.8" r="1.41"/><circle cx="327.8" cy="175.8" r="1.01"/><circle cx="337.3" cy="175.8" r="1.00"/><circle cx="346.8" cy="175.8" r="1.09"/><circle cx="171.0" cy="185.3" r="1.54"/><circle cx="180.5" cy="185.3" r="1.21"/><circle cx="190.0" cy="185.3" r="1.36"/><circle cx="199.5" cy="185.3" r="1.12"/><circle cx="209.0" cy="185.3" r="1.74"/><circle cx="218.5" cy="185.3" r="1.66"/><circle cx="256.5" cy="185.3" r="4.02"/><circle cx="266.0" cy="185.3" r="5.11"/><circle cx="275.5" cy="185.3" r="5.36"/><circle cx="285.0" cy="185.3" r="3.11"/><circle cx="294.5" cy="185.3" r="1.89"/><circle cx="304.0" cy="185.3" r="3.66"/><circle cx="313.5" cy="185.3" r="2.78"/><circle cx="323.0" cy="185.3" r="3.04"/><circle cx="332.5" cy="185.3" r="1.40"/><circle cx="342.0" cy="185.3" r="2.19"/><circle cx="351.5" cy="185.3" r="1.12"/><circle cx="361.0" cy="185.3" r="1.07"/><circle cx="389.5" cy="185.3" r="0.89"/><circle cx="399.0" cy="185.3" r="1.37"/><circle cx="175.8" cy="194.8" r="1.65"/><circle cx="185.3" cy="194.8" r="1.08"/><circle cx="194.8" cy="194.8" r="1.13"/><circle cx="204.3" cy="194.8" r="1.29"/><circle cx="213.8" cy="194.8" r="2.83"/><circle cx="232.8" cy="194.8" r="5.00"/><circle cx="261.3" cy="194.8" r="4.44"/><circle cx="270.8" cy="194.8" r="4.81"/><circle cx="289.8" cy="194.8" r="2.19"/><circle cx="299.3" cy="194.8" r="1.70"/><circle cx="308.8" cy="194.8" r="4.02"/><circle cx="318.3" cy="194.8" r="1.64"/><circle cx="327.8" cy="194.8" r="1.87"/><circle cx="337.3" cy="194.8" r="3.19"/><circle cx="346.8" cy="194.8" r="1.10"/><circle cx="356.3" cy="194.8" r="1.04"/><circle cx="365.8" cy="194.8" r="1.02"/><circle cx="403.8" cy="194.8" r="0.89"/><circle cx="171.0" cy="204.3" r="1.03"/><circle cx="180.5" cy="204.3" r="0.91"/><circle cx="190.0" cy="204.3" r="1.41"/><circle cx="199.5" cy="204.3" r="1.47"/><circle cx="209.0" cy="204.3" r="2.36"/><circle cx="218.5" cy="204.3" r="2.08"/><circle cx="228.0" cy="204.3" r="3.24"/><circle cx="237.5" cy="204.3" r="4.84"/><circle cx="247.0" cy="204.3" r="4.28"/><circle cx="285.0" cy="204.3" r="3.89"/><circle cx="294.5" cy="204.3" r="3.79"/><circle cx="304.0" cy="204.3" r="5.59"/><circle cx="313.5" cy="204.3" r="4.15"/><circle cx="323.0" cy="204.3" r="1.45"/><circle cx="332.5" cy="204.3" r="1.43"/><circle cx="342.0" cy="204.3" r="1.22"/><circle cx="351.5" cy="204.3" r="1.13"/><circle cx="399.0" cy="204.3" r="2.57"/><circle cx="166.3" cy="213.8" r="1.05"/><circle cx="175.8" cy="213.8" r="1.36"/><circle cx="185.3" cy="213.8" r="1.72"/><circle cx="194.8" cy="213.8" r="1.25"/><circle cx="204.3" cy="213.8" r="1.55"/><circle cx="223.3" cy="213.8" r="4.17"/><circle cx="232.8" cy="213.8" r="4.04"/><circle cx="251.8" cy="213.8" r="2.14"/><circle cx="289.8" cy="213.8" r="5.25"/><circle cx="299.3" cy="213.8" r="4.95"/><circle cx="318.3" cy="213.8" r="3.97"/><circle cx="327.8" cy="213.8" r="1.34"/><circle cx="337.3" cy="213.8" r="3.58"/><circle cx="346.8" cy="213.8" r="2.57"/><circle cx="356.3" cy="213.8" r="1.04"/><circle cx="394.3" cy="213.8" r="0.87"/><circle cx="171.0" cy="223.3" r="1.56"/><circle cx="180.5" cy="223.3" r="2.14"/><circle cx="190.0" cy="223.3" r="1.02"/><circle cx="199.5" cy="223.3" r="1.36"/><circle cx="209.0" cy="223.3" r="1.36"/><circle cx="218.5" cy="223.3" r="3.36"/><circle cx="228.0" cy="223.3" r="2.39"/><circle cx="237.5" cy="223.3" r="2.62"/><circle cx="247.0" cy="223.3" r="3.99"/><circle cx="266.0" cy="223.3" r="0.90"/><circle cx="285.0" cy="223.3" r="2.04"/><circle cx="294.5" cy="223.3" r="3.38"/><circle cx="304.0" cy="223.3" r="4.46"/><circle cx="313.5" cy="223.3" r="2.57"/><circle cx="323.0" cy="223.3" r="2.50"/><circle cx="332.5" cy="223.3" r="3.89"/><circle cx="342.0" cy="223.3" r="2.97"/><circle cx="351.5" cy="223.3" r="3.19"/><circle cx="361.0" cy="223.3" r="2.30"/><circle cx="370.5" cy="223.3" r="0.91"/><circle cx="380.0" cy="223.3" r="1.27"/><circle cx="389.5" cy="223.3" r="0.88"/><circle cx="408.5" cy="223.3" r="1.45"/><circle cx="166.3" cy="232.8" r="1.68"/><circle cx="175.8" cy="232.8" r="2.57"/><circle cx="185.3" cy="232.8" r="1.62"/><circle cx="194.8" cy="232.8" r="1.66"/><circle cx="204.3" cy="232.8" r="1.40"/><circle cx="223.3" cy="232.8" r="1.24"/><circle cx="232.8" cy="232.8" r="4.73"/><circle cx="242.3" cy="232.8" r="2.57"/><circle cx="251.8" cy="232.8" r="4.07"/><circle cx="261.3" cy="232.8" r="2.21"/><circle cx="270.8" cy="232.8" r="1.29"/><circle cx="308.8" cy="232.8" r="2.43"/><circle cx="318.3" cy="232.8" r="3.33"/><circle cx="394.3" cy="232.8" r="0.85"/><circle cx="403.8" cy="232.8" r="1.07"/><circle cx="171.0" cy="242.3" r="2.23"/><circle cx="180.5" cy="242.3" r="2.01"/><circle cx="190.0" cy="242.3" r="3.79"/><circle cx="199.5" cy="242.3" r="1.43"/><circle cx="218.5" cy="242.3" r="1.04"/><circle cx="237.5" cy="242.3" r="5.17"/><circle cx="247.0" cy="242.3" r="2.08"/><circle cx="256.5" cy="242.3" r="2.17"/><circle cx="266.0" cy="242.3" r="3.63"/><circle cx="294.5" cy="242.3" r="0.90"/><circle cx="304.0" cy="242.3" r="1.17"/><circle cx="313.5" cy="242.3" r="4.28"/><circle cx="351.5" cy="242.3" r="0.89"/><circle cx="361.0" cy="242.3" r="0.87"/><circle cx="380.0" cy="242.3" r="0.85"/><circle cx="389.5" cy="242.3" r="0.97"/><circle cx="399.0" cy="242.3" r="3.33"/><circle cx="408.5" cy="242.3" r="0.89"/><circle cx="166.3" cy="251.8" r="1.49"/><circle cx="175.8" cy="251.8" r="1.38"/><circle cx="185.3" cy="251.8" r="1.83"/><circle cx="194.8" cy="251.8" r="1.10"/><circle cx="204.3" cy="251.8" r="1.18"/><circle cx="213.8" cy="251.8" r="1.85"/><circle cx="223.3" cy="251.8" r="5.45"/><circle cx="242.3" cy="251.8" r="3.46"/><circle cx="251.8" cy="251.8" r="2.43"/><circle cx="270.8" cy="251.8" r="1.79"/><circle cx="280.3" cy="251.8" r="1.38"/><circle cx="299.3" cy="251.8" r="4.04"/><circle cx="308.8" cy="251.8" r="5.23"/><circle cx="318.3" cy="251.8" r="4.98"/><circle cx="346.8" cy="251.8" r="1.06"/><circle cx="394.3" cy="251.8" r="0.95"/><circle cx="403.8" cy="251.8" r="1.18"/><circle cx="413.3" cy="251.8" r="1.02"/><circle cx="171.0" cy="261.3" r="1.41"/><circle cx="180.5" cy="261.3" r="1.24"/><circle cx="190.0" cy="261.3" r="0.98"/><circle cx="199.5" cy="261.3" r="2.08"/><circle cx="218.5" cy="261.3" r="1.32"/><circle cx="237.5" cy="261.3" r="5.59"/><circle cx="256.5" cy="261.3" r="4.02"/><circle cx="266.0" cy="261.3" r="3.48"/><circle cx="275.5" cy="261.3" r="1.89"/><circle cx="285.0" cy="261.3" r="1.85"/><circle cx="323.0" cy="261.3" r="2.19"/><circle cx="342.0" cy="261.3" r="2.52"/><circle cx="351.5" cy="261.3" r="1.93"/><circle cx="361.0" cy="261.3" r="0.91"/><circle cx="399.0" cy="261.3" r="0.91"/><circle cx="166.3" cy="270.8" r="1.25"/><circle cx="175.8" cy="270.8" r="1.95"/><circle cx="185.3" cy="270.8" r="3.66"/><circle cx="194.8" cy="270.8" r="3.26"/><circle cx="204.3" cy="270.8" r="1.00"/><circle cx="213.8" cy="270.8" r="1.38"/><circle cx="223.3" cy="270.8" r="5.36"/><circle cx="280.3" cy="270.8" r="4.65"/><circle cx="337.3" cy="270.8" r="1.06"/><circle cx="346.8" cy="270.8" r="3.06"/><circle cx="356.3" cy="270.8" r="2.32"/><circle cx="365.8" cy="270.8" r="1.66"/><circle cx="375.3" cy="270.8" r="1.70"/><circle cx="384.8" cy="270.8" r="0.90"/><circle cx="403.8" cy="270.8" r="0.88"/><circle cx="171.0" cy="280.3" r="1.22"/><circle cx="180.5" cy="280.3" r="1.18"/><circle cx="199.5" cy="280.3" r="1.06"/><circle cx="209.0" cy="280.3" r="1.66"/><circle cx="218.5" cy="280.3" r="2.80"/><circle cx="228.0" cy="280.3" r="4.76"/><circle cx="266.0" cy="280.3" r="5.56"/><circle cx="323.0" cy="280.3" r="3.61"/><circle cx="332.5" cy="280.3" r="0.90"/><circle cx="342.0" cy="280.3" r="1.15"/><circle cx="351.5" cy="280.3" r="3.81"/><circle cx="361.0" cy="280.3" r="4.41"/><circle cx="370.5" cy="280.3" r="3.84"/><circle cx="380.0" cy="280.3" r="0.95"/><circle cx="166.3" cy="289.8" r="1.15"/><circle cx="185.3" cy="289.8" r="3.84"/><circle cx="194.8" cy="289.8" r="2.32"/><circle cx="204.3" cy="289.8" r="1.43"/><circle cx="223.3" cy="289.8" r="3.41"/><circle cx="232.8" cy="289.8" r="4.02"/><circle cx="242.3" cy="289.8" r="5.00"/><circle cx="318.3" cy="289.8" r="4.92"/><circle cx="327.8" cy="289.8" r="1.55"/><circle cx="337.3" cy="289.8" r="1.00"/><circle cx="346.8" cy="289.8" r="2.21"/><circle cx="356.3" cy="289.8" r="3.28"/><circle cx="365.8" cy="289.8" r="3.06"/><circle cx="375.3" cy="289.8" r="1.01"/><circle cx="161.5" cy="299.3" r="2.48"/><circle cx="171.0" cy="299.3" r="1.74"/><circle cx="190.0" cy="299.3" r="1.55"/><circle cx="199.5" cy="299.3" r="2.12"/><circle cx="209.0" cy="299.3" r="1.17"/><circle cx="228.0" cy="299.3" r="3.11"/><circle cx="237.5" cy="299.3" r="4.63"/><circle cx="247.0" cy="299.3" r="4.12"/><circle cx="266.0" cy="299.3" r="5.53"/><circle cx="275.5" cy="299.3" r="4.63"/><circle cx="285.0" cy="299.3" r="3.56"/><circle cx="294.5" cy="299.3" r="3.71"/><circle cx="304.0" cy="299.3" r="2.87"/><circle cx="313.5" cy="299.3" r="3.91"/><circle cx="323.0" cy="299.3" r="2.85"/><circle cx="332.5" cy="299.3" r="1.29"/><circle cx="342.0" cy="299.3" r="0.90"/><circle cx="351.5" cy="299.3" r="2.34"/><circle cx="361.0" cy="299.3" r="3.24"/><circle cx="370.5" cy="299.3" r="1.04"/><circle cx="408.5" cy="299.3" r="1.15"/><circle cx="166.3" cy="308.8" r="2.97"/><circle cx="175.8" cy="308.8" r="1.93"/><circle cx="185.3" cy="308.8" r="1.81"/><circle cx="194.8" cy="308.8" r="0.91"/><circle cx="204.3" cy="308.8" r="3.97"/><circle cx="223.3" cy="308.8" r="2.48"/><circle cx="232.8" cy="308.8" r="2.71"/><circle cx="242.3" cy="308.8" r="4.10"/><circle cx="251.8" cy="308.8" r="4.71"/><circle cx="261.3" cy="308.8" r="5.20"/><circle cx="270.8" cy="308.8" r="4.71"/><circle cx="280.3" cy="308.8" r="2.55"/><circle cx="308.8" cy="308.8" r="1.02"/><circle cx="346.8" cy="308.8" r="1.09"/><circle cx="356.3" cy="308.8" r="1.64"/><circle cx="365.8" cy="308.8" r="1.07"/><circle cx="161.5" cy="318.3" r="1.12"/><circle cx="171.0" cy="318.3" r="1.13"/><circle cx="228.0" cy="318.3" r="2.10"/><circle cx="237.5" cy="318.3" r="3.51"/><circle cx="247.0" cy="318.3" r="3.09"/><circle cx="256.5" cy="318.3" r="4.68"/><circle cx="266.0" cy="318.3" r="5.53"/><circle cx="285.0" cy="318.3" r="5.00"/><circle cx="351.5" cy="318.3" r="1.07"/><circle cx="361.0" cy="318.3" r="1.20"/><circle cx="408.5" cy="318.3" r="0.94"/><circle cx="156.8" cy="327.8" r="1.40"/><circle cx="166.3" cy="327.8" r="1.07"/><circle cx="175.8" cy="327.8" r="3.71"/><circle cx="185.3" cy="327.8" r="2.17"/><circle cx="204.3" cy="327.8" r="2.41"/><circle cx="223.3" cy="327.8" r="0.85"/><circle cx="232.8" cy="327.8" r="3.97"/><circle cx="242.3" cy="327.8" r="3.14"/><circle cx="251.8" cy="327.8" r="4.25"/><circle cx="261.3" cy="327.8" r="4.33"/><circle cx="270.8" cy="327.8" r="0.98"/><circle cx="280.3" cy="327.8" r="1.10"/><circle cx="152.0" cy="337.3" r="0.97"/><circle cx="161.5" cy="337.3" r="1.02"/><circle cx="171.0" cy="337.3" r="2.75"/><circle cx="180.5" cy="337.3" r="1.24"/><circle cx="209.0" cy="337.3" r="0.93"/><circle cx="218.5" cy="337.3" r="1.59"/><circle cx="228.0" cy="337.3" r="3.53"/><circle cx="237.5" cy="337.3" r="3.43"/><circle cx="247.0" cy="337.3" r="3.74"/><circle cx="256.5" cy="337.3" r="1.87"/><circle cx="266.0" cy="337.3" r="1.29"/><circle cx="285.0" cy="337.3" r="0.85"/><circle cx="304.0" cy="337.3" r="1.17"/><circle cx="313.5" cy="337.3" r="0.91"/><circle cx="156.8" cy="346.8" r="1.65"/><circle cx="166.3" cy="346.8" r="1.64"/><circle cx="175.8" cy="346.8" r="2.59"/><circle cx="185.3" cy="346.8" r="1.62"/><circle cx="204.3" cy="346.8" r="1.79"/><circle cx="232.8" cy="346.8" r="3.99"/><circle cx="242.3" cy="346.8" r="2.19"/><circle cx="251.8" cy="346.8" r="1.91"/><circle cx="261.3" cy="346.8" r="1.13"/><circle cx="280.3" cy="346.8" r="1.61"/><circle cx="289.8" cy="346.8" r="5.03"/><circle cx="308.8" cy="346.8" r="3.84"/><circle cx="318.3" cy="346.8" r="2.04"/><circle cx="152.0" cy="356.3" r="1.66"/><circle cx="161.5" cy="356.3" r="2.34"/><circle cx="180.5" cy="356.3" r="1.43"/><circle cx="190.0" cy="356.3" r="3.16"/><circle cx="209.0" cy="356.3" r="0.98"/><circle cx="228.0" cy="356.3" r="1.02"/><circle cx="237.5" cy="356.3" r="1.32"/><circle cx="266.0" cy="356.3" r="1.06"/><circle cx="275.5" cy="356.3" r="2.92"/><circle cx="285.0" cy="356.3" r="3.94"/><circle cx="294.5" cy="356.3" r="1.62"/><circle cx="304.0" cy="356.3" r="0.94"/><circle cx="332.5" cy="356.3" r="0.90"/><circle cx="408.5" cy="356.3" r="0.89"/><circle cx="156.8" cy="365.8" r="1.31"/><circle cx="175.8" cy="365.8" r="1.07"/><circle cx="185.3" cy="365.8" r="0.94"/><circle cx="194.8" cy="365.8" r="5.00"/><circle cx="204.3" cy="365.8" r="2.57"/><circle cx="223.3" cy="365.8" r="1.68"/><circle cx="232.8" cy="365.8" r="1.24"/><circle cx="242.3" cy="365.8" r="1.76"/><circle cx="251.8" cy="365.8" r="1.66"/><circle cx="261.3" cy="365.8" r="1.06"/><circle cx="270.8" cy="365.8" r="3.21"/><circle cx="280.3" cy="365.8" r="2.85"/><circle cx="289.8" cy="365.8" r="2.80"/><circle cx="299.3" cy="365.8" r="1.15"/><circle cx="308.8" cy="365.8" r="0.89"/><circle cx="161.5" cy="375.3" r="0.86"/><circle cx="171.0" cy="375.3" r="1.66"/><circle cx="190.0" cy="375.3" r="1.64"/><circle cx="199.5" cy="375.3" r="1.20"/><circle cx="228.0" cy="375.3" r="1.43"/><circle cx="237.5" cy="375.3" r="0.97"/><circle cx="247.0" cy="375.3" r="1.00"/><circle cx="256.5" cy="375.3" r="1.99"/><circle cx="266.0" cy="375.3" r="2.57"/><circle cx="275.5" cy="375.3" r="3.19"/><circle cx="285.0" cy="375.3" r="4.52"/><circle cx="294.5" cy="375.3" r="4.79"/><circle cx="304.0" cy="375.3" r="4.04"/><circle cx="313.5" cy="375.3" r="2.57"/><circle cx="323.0" cy="375.3" r="1.89"/><circle cx="332.5" cy="375.3" r="0.94"/><circle cx="437.0" cy="375.3" r="0.90"/><circle cx="147.3" cy="384.8" r="1.30"/><circle cx="156.8" cy="384.8" r="1.01"/><circle cx="166.3" cy="384.8" r="2.46"/><circle cx="194.8" cy="384.8" r="0.95"/><circle cx="204.3" cy="384.8" r="1.81"/><circle cx="213.8" cy="384.8" r="1.45"/><circle cx="232.8" cy="384.8" r="1.57"/><circle cx="251.8" cy="384.8" r="0.91"/><circle cx="270.8" cy="384.8" r="1.09"/><circle cx="280.3" cy="384.8" r="1.93"/><circle cx="289.8" cy="384.8" r="2.92"/><circle cx="299.3" cy="384.8" r="3.38"/><circle cx="308.8" cy="384.8" r="1.66"/><circle cx="318.3" cy="384.8" r="2.64"/><circle cx="327.8" cy="384.8" r="0.90"/><circle cx="142.5" cy="394.3" r="1.02"/><circle cx="171.0" cy="394.3" r="0.91"/><circle cx="190.0" cy="394.3" r="4.79"/><circle cx="199.5" cy="394.3" r="0.91"/><circle cx="237.5" cy="394.3" r="1.68"/><circle cx="285.0" cy="394.3" r="0.90"/><circle cx="294.5" cy="394.3" r="1.13"/><circle cx="304.0" cy="394.3" r="1.01"/><circle cx="323.0" cy="394.3" r="0.87"/><circle cx="166.3" cy="403.8" r="1.65"/><circle cx="175.8" cy="403.8" r="1.90"/><circle cx="185.3" cy="403.8" r="1.95"/><circle cx="194.8" cy="403.8" r="0.85"/><circle cx="204.3" cy="403.8" r="1.41"/><circle cx="213.8" cy="403.8" r="1.10"/><circle cx="251.8" cy="403.8" r="3.71"/><circle cx="280.3" cy="403.8" r="0.88"/><circle cx="161.5" cy="413.3" r="1.47"/><circle cx="171.0" cy="413.3" r="0.92"/><circle cx="180.5" cy="413.3" r="1.58"/><circle cx="190.0" cy="413.3" r="2.80"/><circle cx="199.5" cy="413.3" r="1.52"/><circle cx="247.0" cy="413.3" r="1.10"/><circle cx="266.0" cy="413.3" r="2.34"/><circle cx="175.8" cy="422.8" r="1.60"/><circle cx="185.3" cy="422.8" r="1.54"/><circle cx="213.8" cy="422.8" r="1.45"/><circle cx="242.3" cy="422.8" r="1.04"/><circle cx="251.8" cy="422.8" r="1.83"/><circle cx="280.3" cy="422.8" r="1.32"/><circle cx="228.0" cy="432.3" r="1.19"/><circle cx="237.5" cy="432.3" r="3.43"/><circle cx="247.0" cy="432.3" r="0.87"/><circle cx="256.5" cy="432.3" r="1.15"/><circle cx="266.0" cy="432.3" r="0.91"/><circle cx="194.8" cy="441.8" r="1.16"/><circle cx="223.3" cy="441.8" r="2.01"/><circle cx="232.8" cy="441.8" r="0.87"/><circle cx="242.3" cy="441.8" r="1.61"/><circle cx="251.8" cy="441.8" r="1.89"/><circle cx="261.3" cy="441.8" r="0.89"/><circle cx="133.0" cy="451.3" r="0.88"/><circle cx="228.0" cy="451.3" r="2.31"/><circle cx="237.5" cy="451.3" r="1.84"/><circle cx="247.0" cy="451.3" r="1.40"/><circle cx="256.5" cy="451.3" r="2.90"/><circle cx="266.0" cy="451.3" r="0.87"/><circle cx="175.8" cy="460.8" r="1.05"/><circle cx="185.3" cy="460.8" r="1.19"/><circle cx="213.8" cy="460.8" r="3.45"/><circle cx="223.3" cy="460.8" r="3.09"/><circle cx="232.8" cy="460.8" r="1.93"/><circle cx="242.3" cy="460.8" r="2.58"/><circle cx="251.8" cy="460.8" r="1.70"/><circle cx="261.3" cy="460.8" r="1.98"/><circle cx="280.3" cy="460.8" r="0.93"/><circle cx="199.5" cy="470.3" r="0.97"/><circle cx="209.0" cy="470.3" r="1.16"/><circle cx="218.5" cy="470.3" r="1.97"/><circle cx="228.0" cy="470.3" r="1.83"/><circle cx="237.5" cy="470.3" r="1.22"/><circle cx="247.0" cy="470.3" r="1.27"/><circle cx="256.5" cy="470.3" r="3.27"/><circle cx="266.0" cy="470.3" r="1.32"/><circle cx="275.5" cy="470.3" r="1.87"/><circle cx="332.5" cy="470.3" r="0.97"/><circle cx="175.8" cy="479.8" r="0.89"/><circle cx="185.3" cy="479.8" r="1.04"/><circle cx="194.8" cy="479.8" r="1.03"/><circle cx="204.3" cy="479.8" r="1.22"/><circle cx="213.8" cy="479.8" r="0.95"/><circle cx="232.8" cy="479.8" r="1.48"/><circle cx="242.3" cy="479.8" r="2.83"/><circle cx="251.8" cy="479.8" r="1.23"/><circle cx="261.3" cy="479.8" r="1.49"/><circle cx="270.8" cy="479.8" r="1.49"/><circle cx="280.3" cy="479.8" r="2.00"/><circle cx="299.3" cy="479.8" r="1.29"/><circle cx="209.0" cy="489.3" r="1.86"/><circle cx="218.5" cy="489.3" r="1.16"/><circle cx="228.0" cy="489.3" r="1.64"/><circle cx="237.5" cy="489.3" r="1.24"/><circle cx="256.5" cy="489.3" r="0.86"/><circle cx="266.0" cy="489.3" r="1.95"/><circle cx="275.5" cy="489.3" r="2.11"/><circle cx="294.5" cy="489.3" r="1.02"/><circle cx="204.3" cy="498.8" r="0.88"/><circle cx="223.3" cy="498.8" r="1.57"/><circle cx="232.8" cy="498.8" r="1.39"/><circle cx="242.3" cy="498.8" r="1.73"/><circle cx="251.8" cy="498.8" r="1.30"/><circle cx="270.8" cy="498.8" r="1.14"/><circle cx="280.3" cy="498.8" r="1.40"/><circle cx="289.8" cy="498.8" r="2.46"/><circle cx="304.0" cy="508.3" r="1.27"/><circle cx="251.8" cy="517.8" r="0.85"/><circle cx="270.8" cy="517.8" r="1.06"/></g><g fill="#f6d98a"><circle cx="261.3" cy="80.8" r="1.12"/><circle cx="256.5" cy="90.3" r="1.75"/><circle cx="256.5" cy="128.3" r="4.30"/><circle cx="266.0" cy="128.3" r="4.44"/><circle cx="275.5" cy="128.3" r="4.55"/><circle cx="261.3" cy="137.8" r="4.98"/><circle cx="270.8" cy="137.8" r="5.14"/><circle cx="308.8" cy="137.8" r="5.01"/><circle cx="256.5" cy="147.3" r="5.55"/><circle cx="266.0" cy="147.3" r="5.42"/><circle cx="275.5" cy="147.3" r="5.78"/><circle cx="232.8" cy="156.8" r="5.59"/><circle cx="261.3" cy="156.8" r="6.16"/><circle cx="270.8" cy="156.8" r="6.10"/><circle cx="308.8" cy="156.8" r="5.67"/><circle cx="228.0" cy="166.3" r="5.55"/><circle cx="247.0" cy="166.3" r="6.16"/><circle cx="256.5" cy="166.3" r="6.16"/><circle cx="266.0" cy="166.3" r="6.16"/><circle cx="223.3" cy="175.8" r="5.90"/><circle cx="242.3" cy="175.8" r="5.90"/><circle cx="261.3" cy="175.8" r="5.70"/><circle cx="270.8" cy="175.8" r="6.16"/><circle cx="308.8" cy="175.8" r="5.70"/><circle cx="228.0" cy="185.3" r="6.13"/><circle cx="237.5" cy="185.3" r="6.10"/><circle cx="247.0" cy="185.3" r="6.01"/><circle cx="223.3" cy="194.8" r="5.64"/><circle cx="242.3" cy="194.8" r="6.16"/><circle cx="251.8" cy="194.8" r="6.16"/><circle cx="280.3" cy="194.8" r="6.16"/><circle cx="256.5" cy="204.3" r="6.13"/><circle cx="266.0" cy="204.3" r="6.16"/><circle cx="275.5" cy="204.3" r="6.16"/><circle cx="213.8" cy="213.8" r="5.84"/><circle cx="242.3" cy="213.8" r="6.16"/><circle cx="261.3" cy="213.8" r="5.96"/><circle cx="270.8" cy="213.8" r="6.16"/><circle cx="280.3" cy="213.8" r="5.76"/><circle cx="308.8" cy="213.8" r="5.73"/><circle cx="228.0" cy="242.3" r="5.87"/><circle cx="232.8" cy="251.8" r="6.16"/><circle cx="261.3" cy="251.8" r="5.81"/><circle cx="228.0" cy="261.3" r="6.13"/><circle cx="247.0" cy="261.3" r="6.13"/><circle cx="294.5" cy="261.3" r="6.07"/><circle cx="304.0" cy="261.3" r="6.07"/><circle cx="313.5" cy="261.3" r="6.01"/><circle cx="232.8" cy="270.8" r="6.16"/><circle cx="242.3" cy="270.8" r="6.07"/><circle cx="251.8" cy="270.8" r="6.10"/><circle cx="261.3" cy="270.8" r="6.16"/><circle cx="270.8" cy="270.8" r="5.87"/><circle cx="289.8" cy="270.8" r="6.16"/><circle cx="299.3" cy="270.8" r="6.13"/><circle cx="308.8" cy="270.8" r="6.16"/><circle cx="318.3" cy="270.8" r="5.67"/><circle cx="237.5" cy="280.3" r="6.16"/><circle cx="247.0" cy="280.3" r="6.16"/><circle cx="256.5" cy="280.3" r="5.96"/><circle cx="275.5" cy="280.3" r="6.13"/><circle cx="285.0" cy="280.3" r="5.70"/><circle cx="294.5" cy="280.3" r="6.16"/><circle cx="304.0" cy="280.3" r="5.79"/><circle cx="313.5" cy="280.3" r="5.98"/><circle cx="175.8" cy="289.8" r="6.10"/><circle cx="251.8" cy="289.8" r="5.84"/><circle cx="261.3" cy="289.8" r="5.64"/><circle cx="270.8" cy="289.8" r="6.01"/><circle cx="280.3" cy="289.8" r="5.96"/><circle cx="289.8" cy="289.8" r="5.64"/><circle cx="299.3" cy="289.8" r="6.16"/><circle cx="308.8" cy="289.8" r="6.04"/><circle cx="180.5" cy="299.3" r="5.93"/><circle cx="256.5" cy="299.3" r="5.90"/><circle cx="289.8" cy="308.8" r="6.10"/><circle cx="180.5" cy="318.3" r="6.16"/><circle cx="190.0" cy="318.3" r="5.90"/><circle cx="275.5" cy="318.3" r="6.10"/><circle cx="190.0" cy="337.3" r="6.16"/><circle cx="299.3" cy="346.8" r="6.16"/><circle cx="304.0" cy="470.3" r="4.50"/><circle cx="275.5" cy="508.3" r="2.07"/></g></svg>