<?xml version='1.0' encoding='UTF-8'?>
<svg width="46.2mm" height="46.2mm" version="1.1" viewBox="0 0 46.2 46.2" xmlns="http://www.w3.org/2000/svg"><path d="M2.8,2.8H4.2V4.2H2.8zM4.2,2.8H5.6V4.2H4.2zM5.6,2.8H7V4.2H5.6zM7,2.8H8.4V4.2H7zM8.4,2.8H9.8V4.2H8.4zM9.8,2.8H11.2V4.2H9.8zM11.2,2.8H12.6V4.2H11.2zM15.4,2.8H16.8V4.2H15.4zM19.6,2.8H21V4.2H19.6zM22.4,2.8H23.8V4.2H22.4zM29.4,2.8H30.8V4.2H29.4zM33.6,2.8H35V4.2H33.6zM35,2.8H36.4V4.2H35zM36.4,2.8H37.8V4.2H36.4zM37.8,2.8H39.2V4.2H37.8zM39.2,2.8H40.6V4.2H39.2zM40.6,2.8H42V4.2H40.6zM42,2.8H43.4V4.2H42zM2.8,4.2H4.2V5.6H2.8zM11.2,4.2H12.6V5.6H11.2zM15.4,4.2H16.8V5.6H15.4zM16.8,4.2H18.2V5.6H16.8zM25.2,4.2H26.6V5.6H25.2zM30.8,4.2H32.2V5.6H30.8zM33.6,4.2H35V5.6H33.6zM42,4.2H43.4V5.6H42zM2.8,5.6H4.2V7H2.8zM5.6,5.6H7V7H5.6zM7,5.6H8.4V7H7zM8.4,5.6H9.8V7H8.4zM11.2,5.6H12.6V7H11.2zM15.4,5.6H16.8V7H15.4zM16.8,5.6H18.2V7H16.8zM18.2,5.6H19.6V7H18.2zM19.6,5.6H21V7H19.6zM22.4,5.6H23.8V7H22.4zM23.8,5.6H25.2V7H23.8zM26.6,5.6H28V7H26.6zM28,5.6H29.4V7H28zM30.8,5.6H32.2V7H30.8zM33.6,5.6H35V7H33.6zM36.4,5.6H37.8V7H36.4zM37.8,5.6H39.2V7H37.8zM39.2,5.6H40.6V7H39.2zM42,5.6H43.4V7H42zM2.8,7H4.2V8.4H2.8zM5.6,7H7V8.4H5.6zM7,7H8.4V8.4H7zM8.4,7H9.8V8.4H8.4zM11.2,7H12.6V8.4H11.2zM15.4,7H16.8V8.4H15.4zM21,7H22.4V8.4H21zM25.2,7H26.6V8.4H25.2zM28,7H29.4V8.4H28zM29.4,7H30.8V8.4H29.4zM33.6,7H35V8.4H33.6zM36.4,7H37.8V8.4H36.4zM37.8,7H39.2V8.4H37.8zM39.2,7H40.6V8.4H39.2zM42,7H43.4V8.4H42zM2.8,8.4H4.2V9.8H2.8zM5.6,8.4H7V9.8H5.6zM7,8.4H8.4V9.8H7zM8.4,8.4H9.8V9.8H8.4zM11.2,8.4H12.6V9.8H11.2zM15.4,8.4H16.8V9.8H15.4zM18.2,8.4H19.6V9.8H18.2zM28,8.4H29.4V9.8H28zM33.6,8.4H35V9.8H33.6zM36.4,8.4H37.8V9.8H36.4zM37.8,8.4H39.2V9.8H37.8zM39.2,8.4H40.6V9.8H39.2zM42,8.4H43.4V9.8H42zM2.8,9.8H4.2V11.2H2.8zM11.2,9.8H12.6V11.2H11.2zM14,9.8H15.4V11.2H14zM15.4,9.8H16.8V11.2H15.4zM18.2,9.8H19.6V11.2H18.2zM19.6,9.8H21V11.2H19.6zM23.8,9.8H25.2V11.2H23.8zM25.2,9.8H26.6V11.2H25.2zM26.6,9.8H28V11.2H26.6zM29.4,9.8H30.8V11.2H29.4zM30.8,9.8H32.2V11.2H30.8zM33.6,9.8H35V11.2H33.6zM42,9.8H43.4V11.2H42zM2.8,11.2H4.2V12.6H2.8zM4.2,11.2H5.6V12.6H4.2zM5.6,11.2H7V12.6H5.6zM7,11.2H8.4V12.6H7zM8.4,11.2H9.8V12.6H8.4zM9.8,11.2H11.2V12.6H9.8zM11.2,11.2H12.6V12.6H11.2zM14,11.2H15.4V12.6H14zM16.8,11.2H18.2V12.6H16.8zM19.6,11.2H21V12.6H19.6zM22.4,11.2H23.8V12.6H22.4zM25.2,11.2H26.6V12.6H25.2zM28,11.2H29.4V12.6H28zM30.8,11.2H32.2V12.6H30.8zM33.6,11.2H35V12.6H33.6zM35,11.2H36.4V12.6H35zM36.4,11.2H37.8V12.6H36.4zM37.8,11.2H39.2V12.6H37.8zM39.2,11.2H40.6V12.6H39.2zM40.6,11.2H42V12.6H40.6zM42,11.2H43.4V12.6H42zM19.6,12.6H21V14H19.6zM21,12.6H22.4V14H21zM23.8,12.6H25.2V14H23.8zM25.2,12.6H26.6V14H25.2zM26.6,12.6H28V14H26.6zM28,12.6H29.4V14H28zM29.4,12.6H30.8V14H29.4zM30.8,12.6H32.2V14H30.8zM2.8,14H4.2V15.4H2.8zM7,14H8.4V15.4H7zM9.8,14H11.2V15.4H9.8zM11.2,14H12.6V15.4H11.2zM14,14H15.4V15.4H14zM19.6,14H21V15.4H19.6zM22.4,14H23.8V15.4H22.4zM25.2,14H26.6V15.4H25.2zM30.8,14H32.2V15.4H30.8zM32.2,14H33.6V15.4H32.2zM35,14H36.4V15.4H35zM4.2,15.4H5.6V16.8H4.2zM5.6,15.4H7V16.8H5.6zM16.8,15.4H18.2V16.8H16.8zM18.2,15.4H19.6V16.8H18.2zM19.6,15.4H21V16.8H19.6zM21,15.4H22.4V16.8H21zM23.8,15.4H25.2V16.8H23.8zM25.2,15.4H26.6V16.8H25.2zM26.6,15.4H28V16.8H26.6zM30.8,15.4H32.2V16.8H30.8zM32.2,15.4H33.6V16.8H32.2zM33.6,15.4H35V16.8H33.6zM37.8,15.4H39.2V16.8H37.8zM42,15.4H43.4V16.8H42zM8.4,16.8H9.8V18.2H8.4zM11.2,16.8H12.6V18.2H11.2zM12.6,16.8H14V18.2H12.6zM14,16.8H15.4V18.2H14zM18.2,16.8H19.6V18.2H18.2zM21,16.8H22.4V18.2H21zM22.4,16.8H23.8V18.2H22.4zM23.8,16.8H25.2V18.2H23.8zM29.4,16.8H30.8V18.2H29.4zM30.8,16.8H32.2V18.2H30.8zM32.2,16.8H33.6V18.2H32.2zM33.6,16.8H35V18.2H33.6zM35,16.8H36.4V18.2H35zM36.4,16.8H37.8V18.2H36.4zM37.8,16.8H39.2V18.2H37.8zM39.2,16.8H40.6V18.2H39.2zM40.6,16.8H42V18.2H40.6zM2.8,18.2H4.2V19.6H2.8zM5.6,18.2H7V19.6H5.6zM8.4,18.2H9.8V19.6H8.4zM9.8,18.2H11.2V19.6H9.8zM12.6,18.2H14V19.6H12.6zM15.4,18.2H16.8V19.6H15.4zM16.8,18.2H18.2V19.6H16.8zM18.2,18.2H19.6V19.6H18.2zM21,18.2H22.4V19.6H21zM25.2,18.2H26.6V19.6H25.2zM28,18.2H29.4V19.6H28zM39.2,18.2H40.6V19.6H39.2zM40.6,18.2H42V19.6H40.6zM11.2,19.6H12.6V21H11.2zM16.8,19.6H18.2V21H16.8zM22.4,19.6H23.8V21H22.4zM23.8,19.6H25.2V21H23.8zM26.6,19.6H28V21H26.6zM29.4,19.6H30.8V21H29.4zM30.8,19.6H32.2V21H30.8zM32.2,19.6H33.6V21H32.2zM33.6,19.6H35V21H33.6zM37.8,19.6H39.2V21H37.8zM40.6,19.6H42V21H40.6zM42,19.6H43.4V21H42zM2.8,21H4.2V22.4H2.8zM4.2,21H5.6V22.4H4.2zM7,21H8.4V22.4H7zM8.4,21H9.8V22.4H8.4zM9.8,21H11.2V22.4H9.8zM15.4,21H16.8V22.4H15.4zM19.6,21H21V22.4H19.6zM21,21H22.4V22.4H21zM22.4,21H23.8V22.4H22.4zM23.8,21H25.2V22.4H23.8zM25.2,21H26.6V22.4H25.2zM29.4,21H30.8V22.4H29.4zM32.2,21H33.6V22.4H32.2zM2.8,22.4H4.2V23.8H2.8zM4.2,22.4H5.6V23.8H4.2zM5.6,22.4H7V23.8H5.6zM8.4,22.4H9.8V23.8H8.4zM11.2,22.4H12.6V23.8H11.2zM15.4,22.4H16.8V23.8H15.4zM16.8,22.4H18.2V23.8H16.8zM21,22.4H22.4V23.8H21zM22.4,22.4H23.8V23.8H22.4zM26.6,22.4H28V23.8H26.6zM35,22.4H36.4V23.8H35zM37.8,22.4H39.2V23.8H37.8zM39.2,22.4H40.6V23.8H39.2zM40.6,22.4H42V23.8H40.6zM42,22.4H43.4V23.8H42zM2.8,23.8H4.2V25.2H2.8zM5.6,23.8H7V25.2H5.6zM8.4,23.8H9.8V25.2H8.4zM9.8,23.8H11.2V25.2H9.8zM12.6,23.8H14V25.2H12.6zM15.4,23.8H16.8V25.2H15.4zM18.2,23.8H19.6V25.2H18.2zM23.8,23.8H25.2V25.2H23.8zM26.6,23.8H28V25.2H26.6zM35,23.8H36.4V25.2H35zM36.4,23.8H37.8V25.2H36.4zM37.8,23.8H39.2V25.2H37.8zM40.6,23.8H42V25.2H40.6zM2.8,25.2H4.2V26.6H2.8zM4.2,25.2H5.6V26.6H4.2zM5.6,25.2H7V26.6H5.6zM8.4,25.2H9.8V26.6H8.4zM9.8,25.2H11.2V26.6H9.8zM11.2,25.2H12.6V26.6H11.2zM12.6,25.2H14V26.6H12.6zM15.4,25.2H16.8V26.6H15.4zM16.8,25.2H18.2V26.6H16.8zM19.6,25.2H21V26.6H19.6zM21,25.2H22.4V26.6H21zM26.6,25.2H28V26.6H26.6zM28,25.2H29.4V26.6H28zM29.4,25.2H30.8V26.6H29.4zM30.8,25.2H32.2V26.6H30.8zM32.2,25.2H33.6V26.6H32.2zM35,25.2H36.4V26.6H35zM40.6,25.2H42V26.6H40.6zM4.2,26.6H5.6V28H4.2zM7,26.6H8.4V28H7zM12.6,26.6H14V28H12.6zM14,26.6H15.4V28H14zM16.8,26.6H18.2V28H16.8zM19.6,26.6H21V28H19.6zM21,26.6H22.4V28H21zM22.4,26.6H23.8V28H22.4zM23.8,26.6H25.2V28H23.8zM25.2,26.6H26.6V28H25.2zM26.6,26.6H28V28H26.6zM33.6,26.6H35V28H33.6zM35,26.6H36.4V28H35zM37.8,26.6H39.2V28H37.8zM42,26.6H43.4V28H42zM2.8,28H4.2V29.4H2.8zM7,28H8.4V29.4H7zM8.4,28H9.8V29.4H8.4zM11.2,28H12.6V29.4H11.2zM15.4,28H16.8V29.4H15.4zM19.6,28H21V29.4H19.6zM22.4,28H23.8V29.4H22.4zM23.8,28H25.2V29.4H23.8zM25.2,28H26.6V29.4H25.2zM26.6,28H28V29.4H26.6zM35,28H36.4V29.4H35zM36.4,28H37.8V29.4H36.4zM40.6,28H42V29.4H40.6zM42,28H43.4V29.4H42zM5.6,29.4H7V30.8H5.6zM9.8,29.4H11.2V30.8H9.8zM12.6,29.4H14V30.8H12.6zM15.4,29.4H16.8V30.8H15.4zM16.8,29.4H18.2V30.8H16.8zM22.4,29.4H23.8V30.8H22.4zM26.6,29.4H28V30.8H26.6zM30.8,29.4H32.2V30.8H30.8zM33.6,29.4H35V30.8H33.6zM35,29.4H36.4V30.8H35zM36.4,29.4H37.8V30.8H36.4zM40.6,29.4H42V30.8H40.6zM42,29.4H43.4V30.8H42zM2.8,30.8H4.2V32.2H2.8zM7,30.8H8.4V32.2H7zM8.4,30.8H9.8V32.2H8.4zM11.2,30.8H12.6V32.2H11.2zM14,30.8H15.4V32.2H14zM15.4,30.8H16.8V32.2H15.4zM16.8,30.8H18.2V32.2H16.8zM19.6,30.8H21V32.2H19.6zM23.8,30.8H25.2V32.2H23.8zM25.2,30.8H26.6V32.2H25.2zM30.8,30.8H32.2V32.2H30.8zM32.2,30.8H33.6V32.2H32.2zM33.6,30.8H35V32.2H33.6zM35,30.8H36.4V32.2H35zM36.4,30.8H37.8V32.2H36.4zM39.2,30.8H40.6V32.2H39.2zM14,32.2H15.4V33.6H14zM22.4,32.2H23.8V33.6H22.4zM23.8,32.2H25.2V33.6H23.8zM26.6,32.2H28V33.6H26.6zM29.4,32.2H30.8V33.6H29.4zM30.8,32.2H32.2V33.6H30.8zM36.4,32.2H37.8V33.6H36.4zM39.2,32.2H40.6V33.6H39.2zM40.6,32.2H42V33.6H40.6zM42,32.2H43.4V33.6H42zM2.8,33.6H4.2V35H2.8zM4.2,33.6H5.6V35H4.2zM5.6,33.6H7V35H5.6zM7,33.6H8.4V35H7zM8.4,33.6H9.8V35H8.4zM9.8,33.6H11.2V35H9.8zM11.2,33.6H12.6V35H11.2zM16.8,33.6H18.2V35H16.8zM18.2,33.6H19.6V35H18.2zM25.2,33.6H26.6V35H25.2zM28,33.6H29.4V35H28zM30.8,33.6H32.2V35H30.8zM33.6,33.6H35V35H33.6zM36.4,33.6H37.8V35H36.4zM40.6,33.6H42V35H40.6zM2.8,35H4.2V36.4H2.8zM11.2,35H12.6V36.4H11.2zM14,35H15.4V36.4H14zM16.8,35H18.2V36.4H16.8zM19.6,35H21V36.4H19.6zM22.4,35H23.8V36.4H22.4zM25.2,35H26.6V36.4H25.2zM28,35H29.4V36.4H28zM30.8,35H32.2V36.4H30.8zM36.4,35H37.8V36.4H36.4zM37.8,35H39.2V36.4H37.8zM39.2,35H40.6V36.4H39.2zM42,35H43.4V36.4H42zM2.8,36.4H4.2V37.8H2.8zM5.6,36.4H7V37.8H5.6zM7,36.4H8.4V37.8H7zM8.4,36.4H9.8V37.8H8.4zM11.2,36.4H12.6V37.8H11.2zM15.4,36.4H16.8V37.8H15.4zM18.2,36.4H19.6V37.8H18.2zM23.8,36.4H25.2V37.8H23.8zM25.2,36.4H26.6V37.8H25.2zM26.6,36.4H28V37.8H26.6zM30.8,36.4H32.2V37.8H30.8zM32.2,36.4H33.6V37.8H32.2zM33.6,36.4H35V37.8H33.6zM35,36.4H36.4V37.8H35zM36.4,36.4H37.8V37.8H36.4zM40.6,36.4H42V37.8H40.6zM2.8,37.8H4.2V39.2H2.8zM5.6,37.8H7V39.2H5.6zM7,37.8H8.4V39.2H7zM8.4,37.8H9.8V39.2H8.4zM11.2,37.8H12.6V39.2H11.2zM14,37.8H15.4V39.2H14zM15.4,37.8H16.8V39.2H15.4zM16.8,37.8H18.2V39.2H16.8zM21,37.8H22.4V39.2H21zM25.2,37.8H26.6V39.2H25.2zM26.6,37.8H28V39.2H26.6zM28,37.8H29.4V39.2H28zM29.4,37.8H30.8V39.2H29.4zM30.8,37.8H32.2V39.2H30.8zM33.6,37.8H35V39.2H33.6zM35,37.8H36.4V39.2H35zM36.4,37.8H37.8V39.2H36.4zM37.8,37.8H39.2V39.2H37.8zM39.2,37.8H40.6V39.2H39.2zM42,37.8H43.4V39.2H42zM2.8,39.2H4.2V40.6H2.8zM5.6,39.2H7V40.6H5.6zM7,39.2H8.4V40.6H7zM8.4,39.2H9.8V40.6H8.4zM11.2,39.2H12.6V40.6H11.2zM16.8,39.2H18.2V40.6H16.8zM18.2,39.2H19.6V40.6H18.2zM21,39.2H22.4V40.6H21zM25.2,39.2H26.6V40.6H25.2zM26.6,39.2H28V40.6H26.6zM28,39.2H29.4V40.6H28zM29.4,39.2H30.8V40.6H29.4zM36.4,39.2H37.8V40.6H36.4zM37.8,39.2H39.2V40.6H37.8zM39.2,39.2H40.6V40.6H39.2zM42,39.2H43.4V40.6H42zM2.8,40.6H4.2V42H2.8zM11.2,40.6H12.6V42H11.2zM16.8,40.6H18.2V42H16.8zM18.2,40.6H19.6V42H18.2zM19.6,40.6H21V42H19.6zM23.8,40.6H25.2V42H23.8zM26.6,40.6H28V42H26.6zM30.8,40.6H32.2V42H30.8zM35,40.6H36.4V42H35zM36.4,40.6H37.8V42H36.4zM40.6,40.6H42V42H40.6zM2.8,42H4.2V43.4H2.8zM4.2,42H5.6V43.4H4.2zM5.6,42H7V43.4H5.6zM7,42H8.4V43.4H7zM8.4,42H9.8V43.4H8.4zM9.8,42H11.2V43.4H9.8zM11.2,42H12.6V43.4H11.2zM14,42H15.4V43.4H14zM15.4,42H16.8V43.4H15.4zM16.8,42H18.2V43.4H16.8zM18.2,42H19.6V43.4H18.2zM19.6,42H21V43.4H19.6zM22.4,42H23.8V43.4H22.4zM25.2,42H26.6V43.4H25.2zM26.6,42H28V43.4H26.6zM30.8,42H32.2V43.4H30.8zM32.2,42H33.6V43.4H32.2zM35,42H36.4V43.4H35zM37.8,42H39.2V43.4H37.8zM40.6,42H42V43.4H40.6z" id="qr-path" fill="#000000" fill-opacity="1" fill-rule="nonzero" stroke="none" /></svg>